<svg xmlns="http://www.w3.org/2000/svg" width="18" height="18" viewBox="0 0 20 20" fill="none">
  <path fill-rule="evenodd" clip-rule="evenodd" d="M9.99967 17.0835C13.9055 17.0835 17.083 13.906 17.083 10.0002C17.083 6.09433 13.9055 2.91683 9.99967 2.91683C6.09384 2.91683 2.91634 6.09433 2.91634 10.0002C2.91634 13.906 6.09384 17.0835 9.99967 17.0835ZM9.99967 1.66683C14.5947 1.66683 18.333 5.40516 18.333 10.0002C18.333 14.5952 14.5947 18.3335 9.99967 18.3335C5.40467 18.3335 1.66634 14.5952 1.66634 10.0002C1.66634 5.40516 5.40467 1.66683 9.99967 1.66683Z" fill="#242627"/>
  <path fill-rule="evenodd" clip-rule="evenodd" d="M10.0049 8.85607C10.3499 8.85607 10.6299 9.13607 10.6299 9.48107L10.6299 13.1636C10.6299 13.5086 10.3499 13.7886 10.0049 13.7886C9.65988 13.7886 9.37988 13.5086 9.37988 13.1636L9.37988 9.48107C9.37988 9.13607 9.65988 8.85607 10.0049 8.85607Z" fill="#242627"/>
  <path fill-rule="evenodd" clip-rule="evenodd" d="M9.99648 6.00374C10.4573 6.00374 10.834 6.37624 10.834 6.83708C10.834 7.29791 10.4648 7.67041 10.0048 7.67041H9.99648C9.53565 7.67041 9.16315 7.29791 9.16315 6.83708C9.16315 6.37624 9.53565 6.00374 9.99648 6.00374Z" fill="#242627"/>
</svg>